<svg width="24" height="20" viewBox="0 0 24 20" fill="none" xmlns="http://www.w3.org/2000/svg">
<path fill-rule="evenodd" clip-rule="evenodd" d="M0 3C0 1.34315 1.34315 0 3 0H21C22.6569 0 24 1.34315 24 3V17C24 18.6569 22.6569 20 21 20H3C1.34315 20 0 18.6569 0 17V3ZM3.5 5.65543C3.49993 5.66243 3.49993 5.66942 3.5 5.67641V14.875C3.5 16.2442 4.54886 17.5 6 17.5H18C19.4511 17.5 20.5 16.2442 20.5 14.875V5.67639C20.5001 5.66941 20.5001 5.66243 20.5 5.65545V5.125C20.5 3.75584 19.4511 2.5 18 2.5H6C4.54886 2.5 3.5 3.75584 3.5 5.125V5.65543ZM18.5 5.16999V5.125C18.5 4.70666 18.1989 4.5 18 4.5H6C5.80114 4.5 5.5 4.70666 5.5 5.125V5.16999L12 10.0992L18.5 5.16999ZM18.5 7.68002L12.6042 12.151C12.247 12.4219 11.753 12.4219 11.3958 12.151L5.5 7.68002V14.875C5.5 15.2933 5.80114 15.5 6 15.5H18C18.1989 15.5 18.5 15.2933 18.5 14.875V7.68002Z" fill="black"/>
</svg>
